<svg
    xmlns="http://www.w3.org/2000/svg"
    version="1.1"
    xmlns:xlink="http://www.w3.org/1999/xlink"
    width="48"
    height="48"
    x="0"
    y="0"
    viewBox="0 0 512 512"
    xml:space="preserve"
>
          <g>
            <path
              d="M256 492.909c-133.618 0-242.324-108.705-242.324-242.324S122.382 8.262 256 8.262s242.324 108.705 242.324 242.324S389.617 492.909 256 492.909z"
              style="opacity:0.15;"
              fill="#fff35f"
              data-original="#fff35f"
            ></path>
            <path
              d="M256 404.792c-85.029 0-154.206-69.177-154.206-154.206S170.971 96.38 256 96.38s154.206 69.177 154.206 154.206S341.029 404.792 256 404.792z"
              style="opacity:0.3;"
              fill="#fff35f"
              data-original="#fff35f"
            ></path>
            <circle
              cx="256.003"
              cy="250.586"
              r="99.132"
              style="opacity:0.3;"
              fill="#fff35f"
              data-original="#fff35f"
            ></circle>
            <path
              d="M278.077 447.565 256 426.821l-22.078 20.744c-23.566 9.16-38.613 31.672-38.854 56.175h121.865c-.242-24.502-15.29-47.015-38.856-56.175z"
              style=""
              fill="#7a3a1a"
              data-original="#7a3a1a"
            ></path>
            <path
              d="m234.018 447.565-.048-.045-.048.045c-23.566 9.16-38.613 31.672-38.854 56.175h77.806c-.242-24.502-15.29-47.015-38.856-56.175z"
              style="opacity:0.1;"
              fill="#e5d4d1"
              data-original="#e5d4d1"
            ></path>
            <circle
              cx="230.669"
              cy="473.083"
              r="13.218"
              style="opacity:0.1;"
              fill="#e5d4d1"
              data-original="#e5d4d1"
            ></circle>
            <path
              d="M256 79.858c-15.208 0-27.537 12.329-27.537 27.537 0 9.009 4.327 17.006 11.015 22.029L256 140.439l16.522-11.015c6.688-5.024 11.015-13.022 11.015-22.029 0-15.209-12.329-27.537-27.537-27.537z"
              style=""
              fill="#7a3a1a"
              data-original="#7a3a1a"
            ></path>
            <circle
              cx="246.09"
              cy="98.583"
              r="13.218"
              style="opacity:0.1;"
              fill="#e5d4d1"
              data-original="#e5d4d1"
            ></circle>
            <path
              d="M167.886 261.6h176.235v132.176H167.886z"
              style=""
              fill="#d9b43a"
              data-original="#d9b43a"
            ></path>
            <path
              d="M211.944 261.6h88.118v132.176h-88.118zM211.941 336.907c-6.218 15.846-22.311 26.614-40.311 25.384a31.194 31.194 0 0 1-3.748-.487v16.716c.876.107 1.757.196 2.645.256a57.7 57.7 0 0 0 3.865.129c14.27-.001 27.468-5.326 37.55-14.162v-27.836h-.001zM190.613 335.325c4.536.308 8.493-3.127 8.803-7.681.596-8.736-2.257-17.188-8.032-23.801-5.828-6.673-13.923-10.674-22.794-11.269-.238-.017-.473-.018-.709-.03v16.561c4.307.389 8.224 2.36 11.059 5.606 2.869 3.286 4.288 7.48 3.993 11.81a8.262 8.262 0 0 0 7.68 8.804zM201.912 287.691c4.507 5.16 7.88 11.029 10.028 17.309v-30.802a68.662 68.662 0 0 0-16.551-12.596h-27.508v8.435c13.244 1.404 25.266 7.616 34.031 17.654z"
              style=""
              fill="#e7d96b"
              data-original="#e7d96b"
            ></path>
            <path
              d="M300.059 318.47c6.218-15.846 22.311-26.614 40.311-25.384 1.269.085 2.518.253 3.748.487v-16.717a49.111 49.111 0 0 0-2.645-.256 57.7 57.7 0 0 0-3.865-.129c-14.27.001-27.468 5.326-37.55 14.162v27.837h.001zM321.385 320.052c-4.536-.308-8.493 3.127-8.803 7.681-.596 8.736 2.257 17.188 8.032 23.801 5.828 6.673 13.923 10.674 22.794 11.269.238.017.473.018.709.03v-16.561c-4.307-.389-8.224-2.36-11.059-5.606-2.869-3.286-4.288-7.48-3.993-11.81a8.259 8.259 0 0 0-7.68-8.804zM310.087 367.686c-4.507-5.16-7.88-11.029-10.028-17.309v30.802a68.662 68.662 0 0 0 16.551 12.596h27.508v-8.435c-13.244-1.405-25.266-7.617-34.031-17.654z"
              style=""
              fill="#e7d96b"
              data-original="#e7d96b"
            ></path>
            <path
              d="M251.494 378.906c-1.282 0-2.568-.042-3.865-.129-12.621-.846-24.135-6.537-32.424-16.026-8.207-9.397-12.262-21.408-11.416-33.818 1.464-21.5 20.298-37.816 41.904-36.358 8.872.595 16.966 4.598 22.794 11.269 5.775 6.612 8.628 15.066 8.032 23.801-.31 4.553-4.267 7.989-8.803 7.681a8.261 8.261 0 0 1-7.681-8.803c.295-4.33-1.124-8.523-3.993-11.81-2.922-3.346-6.991-5.353-11.454-5.653-12.549-.853-23.47 8.576-24.316 20.996-.545 8.005 2.074 15.757 7.375 21.827 5.384 6.163 12.872 9.859 21.084 10.409 22.168 1.514 41.447-15.168 42.943-37.126.937-13.745-3.559-27.055-12.66-37.474-9.228-10.566-22.061-16.905-36.135-17.847a8.26 8.26 0 0 1-7.69-8.794c.304-4.553 4.272-8.002 8.794-7.69 18.48 1.238 35.342 9.571 47.476 23.465 12.006 13.745 17.936 31.314 16.699 49.466-2.026 29.744-27.061 52.612-56.664 52.614z"
              style=""
              fill="#d9b43a"
              data-original="#d9b43a"
            ></path>
            <path
              d="M159.625 261.6h16.522v132.176h-16.522zM335.86 261.6h16.522v132.176H335.86zM203.683 261.6h16.522v132.176h-16.522zM291.801 261.6h16.522v132.176h-16.522z"
              style=""
              fill="#592015"
              data-original="#592015"
            ></path>
            <path
              d="M178.897 417.092 256 428.106l77.103-11.015c0-12.167 9.863-22.029 22.029-22.029H156.868c12.165 0 22.029 9.863 22.029 22.03z"
              style=""
              fill="#7a3a1a"
              data-original="#7a3a1a"
            ></path>
            <path
              d="M156.868 386.801h198.265a8.26 8.26 0 0 1 8.261 8.261 8.26 8.26 0 0 1-8.261 8.261H156.868a8.26 8.26 0 0 1-8.261-8.261 8.26 8.26 0 0 1 8.261-8.261zM210.656 448.85h90.687c17.54 0 31.759-14.219 31.759-31.759H178.896c.001 17.541 14.22 31.759 31.76 31.759z"
              style=""
              fill="#633018"
              data-original="#633018"
            ></path>
            <path
              d="M355.132 403.323H337.95a21.924 21.924 0 0 0-4.848 13.768c0 17.459-14.089 31.629-31.517 31.759H256v-62.049h99.132a8.26 8.26 0 0 1 8.261 8.261 8.26 8.26 0 0 1-8.261 8.261z"
              style="opacity:0.3;"
              fill="#4c1e10"
              data-original="#4c1e10"
            ></path>
            <g style="opacity:0.1;">
              <path
                d="M355.132 403.323H338.61a8.26 8.26 0 0 0 8.261-8.261 8.26 8.26 0 0 0-8.261-8.261h16.522a8.26 8.26 0 0 1 8.261 8.261 8.26 8.26 0 0 1-8.261 8.261z"
                style="opacity:0.3;"
                fill="#461a0d"
                data-original="#461a0d"
              ></path>
              <path
                d="M321.428 403.323a21.924 21.924 0 0 0-4.848 13.768c0 17.459-14.089 31.622-31.517 31.753l.013.007h16.522l-.013-.007c17.429-.131 31.517-14.294 31.517-31.753 0-5.213 1.821-9.996 4.848-13.768h-16.522z"
                style="opacity:0.3;"
                fill="#4c1e10"
                data-original="#4c1e10"
              ></path>
              <path
                d="M156.868 403.323h16.522a8.26 8.26 0 0 1-8.261-8.261 8.26 8.26 0 0 1 8.261-8.261h-16.522a8.26 8.26 0 0 0-8.261 8.261 8.259 8.259 0 0 0 8.261 8.261zM195.419 417.092c0-5.213-1.821-9.996-4.848-13.768h-16.522a21.924 21.924 0 0 1 4.848 13.768c0 17.459 14.089 31.622 31.517 31.753l-.013.007h16.522l.013-.007c-17.428-.132-31.517-14.295-31.517-31.753z"
                style=""
                fill="#e5d4d1"
                data-original="#e5d4d1"
              ></path>
            </g>
            <path
              d="M272.522 165.772 256 151.453l-16.522 14.319c-17.636 6.854-28.896 23.703-29.078 42.04l45.6 20.744 45.6-20.744c-.182-18.337-11.442-35.185-29.078-42.04zM333.103 239.571 256 228.556l-77.103 11.015c0 12.167-9.863 22.029-22.029 22.029h198.265c-12.167 0-22.03-9.862-22.03-22.029z"
              style=""
              fill="#7a3a1a"
              data-original="#7a3a1a"
            ></path>
            <path
              d="M355.132 269.861H156.868a8.26 8.26 0 0 1-8.261-8.261 8.26 8.26 0 0 1 8.261-8.261h198.265a8.261 8.261 0 1 1-.001 16.522zM301.343 207.812h-90.687c-17.54 0-31.759 14.219-31.759 31.759h154.206c0-17.54-14.219-31.759-31.76-31.759z"
              style=""
              fill="#633018"
              data-original="#633018"
            ></path>
            <path
              d="M355.132 253.339H337.95a21.924 21.924 0 0 1-4.848-13.768c0-17.459-14.089-31.622-31.517-31.753l.013-.007c-.181-18.337-11.441-35.184-29.078-42.04l-16.522-14.319v118.409h99.132a8.26 8.26 0 0 0 8.261-8.261 8.258 8.258 0 0 0-8.259-8.261z"
              style="opacity:0.3;"
              fill="#4c1e10"
              data-original="#4c1e10"
            ></path>
            <g style="opacity:0.3;">
              <path
                d="M355.132 253.339H338.61a8.26 8.26 0 0 1 8.261 8.261 8.26 8.26 0 0 1-8.261 8.261h16.522a8.26 8.26 0 0 0 8.261-8.261 8.26 8.26 0 0 0-8.261-8.261z"
                style=""
                fill="#461a0d"
                data-original="#461a0d"
              ></path>
              <path
                d="m285.077 207.812-.013.007c17.429.131 31.517 14.294 31.517 31.753 0 5.213 1.821 9.996 4.848 13.768h16.522a21.924 21.924 0 0 1-4.848-13.768c0-17.459-14.089-31.622-31.517-31.753l.013-.007c-.181-18.337-11.441-35.184-29.078-42.04v-36.349h-16.522v36.349c17.637 6.855 28.897 23.703 29.078 42.04z"
                style=""
                fill="#4c1e10"
                data-original="#4c1e10"
              ></path>
            </g>
            <g style="opacity:0.1;">
              <path
                d="M156.868 253.339h16.522a8.26 8.26 0 0 0-8.261 8.261 8.26 8.26 0 0 0 8.261 8.261h-16.522a8.26 8.26 0 0 1-8.261-8.261 8.26 8.26 0 0 1 8.261-8.261zM256 165.772h-16.522c-17.636 6.854-28.897 23.703-29.078 42.04l.013.007c-17.429.131-31.517 14.294-31.517 31.753 0 5.213-1.821 9.996-4.848 13.768h16.522a21.924 21.924 0 0 0 4.848-13.768c0-17.459 14.089-31.622 31.517-31.753l-.013-.007c.181-18.337 11.442-35.185 29.078-42.04z"
                style=""
                fill="#e5d4d1"
                data-original="#e5d4d1"
              ></path>
            </g>
            <path
              d="M239.481 129.424h33.044v36.349h-33.044z"
              style=""
              fill="#633018"
              data-original="#633018"
            ></path>
            <path
              d="M247.742 129.424h8.261v36.349h-8.261z"
              style="opacity:0.1;"
              fill="#e5d4d1"
              data-original="#e5d4d1"
            ></path>
            <path
              d="M355.132 385.516h-2.754V269.861h2.754a8.26 8.26 0 1 0 0-16.522c-7.592 0-13.768-6.176-13.768-13.768 0-19.351-13.807-35.536-32.086-39.228-2.507-17.127-13.039-31.923-28.495-39.892v-4.681c32.737-10.606 55.074-40.937 55.074-75.913C335.857 35.823 300.033 0 256 0s-79.857 35.823-79.857 79.857c0 24.732 11.189 47.665 30.7 62.919a81.287 81.287 0 0 0 3.454 2.553 8.259 8.259 0 0 0 11.503-2.042 8.26 8.26 0 0 0-2.042-11.503 62.807 62.807 0 0 1-2.74-2.026c-15.477-12.1-24.352-30.288-24.352-49.902 0-34.923 28.411-63.335 63.335-63.335s63.335 28.411 63.335 63.335c0 25.876-15.411 48.545-38.551 58.302v-4.929c7.046-6.724 11.015-15.926 11.015-25.836 0-19.738-16.058-35.798-35.798-35.798s-35.798 16.059-35.798 35.798c0 9.91 3.969 19.112 11.015 25.836v27.222c-15.456 7.969-25.988 22.765-28.495 39.892-18.279 3.692-32.086 19.876-32.086 39.228 0 7.592-6.176 13.768-13.768 13.768a8.26 8.26 0 1 0 0 16.522h2.754v115.654h-2.754a8.26 8.26 0 1 0 0 16.522c7.592 0 13.768 6.176 13.768 13.768 0 22.067 17.953 40.02 40.02 40.02h65.796c16.814 7.071 28.512 22.028 31.478 39.653H204.085a52.694 52.694 0 0 1 7.78-19.868 8.26 8.26 0 1 0-13.848-9.011 69.134 69.134 0 0 0-10.636 28.878h-6.283a8.26 8.26 0 1 0 0 16.522h149.8a8.26 8.26 0 1 0 0-16.522h-6.268c-1.944-15.295-8.86-29.211-19.424-39.844 20.26-1.951 36.156-19.066 36.156-39.83a8.26 8.26 0 1 0-16.522 0c0 12.957-10.541 23.498-23.498 23.498h-90.686c-12.957 0-23.498-10.541-23.498-23.498 0-4.954-1.196-9.636-3.314-13.768h171.289a8.26 8.26 0 1 0-.001-16.519zM242.471 173.473c.028-.011.053-.025.08-.035.167-.067.33-.143.491-.22.091-.044.184-.085.273-.131.134-.07.264-.15.395-.227.109-.065.22-.128.325-.198.098-.065.189-.135.284-.204.128-.093.256-.183.377-.282.069-.056.133-.118.2-.176.134-.118.27-.235.395-.36.059-.058.113-.122.171-.183.123-.13.247-.26.361-.398.068-.082.13-.17.195-.254.094-.121.188-.241.275-.368.082-.119.154-.245.23-.369.059-.098.123-.194.178-.294.083-.15.156-.306.23-.462.039-.082.082-.162.118-.245.068-.158.127-.321.186-.484.032-.089.068-.177.098-.268.047-.145.085-.295.123-.444.031-.116.064-.23.089-.347.026-.122.045-.248.066-.372.025-.15.052-.3.069-.452.011-.1.017-.203.024-.304.013-.178.025-.356.028-.535 0-.03.004-.058.004-.088v-36.349c0-.057-.008-.112-.009-.17a10.188 10.188 0 0 0-.059-.841 7.192 7.192 0 0 0-.058-.382 7.836 7.836 0 0 0-.083-.432c-.025-.112-.056-.224-.086-.335a9.349 9.349 0 0 0-.129-.442c-.036-.108-.077-.215-.118-.322a8.05 8.05 0 0 0-.167-.417c-.051-.113-.107-.225-.162-.336-.062-.123-.122-.248-.191-.368a7.82 7.82 0 0 0-.214-.351c-.067-.107-.134-.215-.207-.318a5.944 5.944 0 0 0-.256-.341c-.078-.1-.155-.2-.238-.297-.087-.102-.18-.2-.272-.3-.097-.102-.194-.205-.296-.302a8.56 8.56 0 0 0-.638-.553c-.041-.032-.076-.067-.118-.098-4.903-3.683-7.715-9.305-7.715-15.425 0-10.628 8.648-19.276 19.276-19.276s19.276 8.648 19.276 19.276c0 6.12-2.812 11.742-7.715 15.424l.006.007a8.24 8.24 0 0 0-3.306 6.599v36.349c0 .03.004.058.004.088.002.18.013.358.028.535.008.101.012.204.024.304.018.152.043.302.069.452.021.124.04.25.066.372.025.117.058.231.089.347.039.149.076.298.123.444.03.091.066.18.098.269.058.162.117.324.185.481.036.084.08.165.119.248.074.155.147.31.229.459.056.1.119.196.178.294.076.123.149.249.23.369.086.127.182.247.275.368.065.085.127.172.195.254.115.138.238.267.361.398.057.061.111.124.171.183.127.126.261.242.395.36.067.058.132.12.2.176.121.099.249.189.377.282.095.068.187.14.284.204.106.069.216.132.325.198.13.078.26.156.395.227.089.046.182.088.273.132.162.077.324.153.491.22.028.011.053.025.08.036 11.647 4.526 20.005 14.318 22.795 26.078h-72.65c2.799-11.76 11.157-21.552 22.805-26.078zm-31.815 42.6h90.688c12.957 0 23.498 10.541 23.498 23.498 0 4.954 1.196 9.636 3.314 13.768H183.844a30.107 30.107 0 0 0 3.314-13.768c0-12.957 10.541-23.498 23.498-23.498zm-34.513 169.443V269.861h159.713v115.654H176.143z"
              fill="#000000"
              opacity="1"
              data-original="#000000"
            ></path>
          </g>
        </svg>